<?xml version="1.0" standalone="no"?>
<!DOCTYPE svg PUBLIC "-//W3C//DTD SVG 20010904//EN"
 "http://www.w3.org/TR/2001/REC-SVG-20010904/DTD/svg10.dtd">
<svg version="1.0" xmlns="http://www.w3.org/2000/svg"
 width="512.000000pt" height="512.000000pt" viewBox="0 0 512.000000 512.000000"
 preserveAspectRatio="xMidYMid meet">
<metadata>
Created by potrace 1.11, written by Peter Selinger 2001-2013
</metadata>
<g transform="translate(0.000000,512.000000) scale(0.100000,-0.100000)"
fill="#000000" stroke="none">
<path d="M0 2560 l0 -2560 2560 0 2560 0 0 2560 0 2560 -2560 0 -2560 0 0
-2560z m1771 1090 c15 -279 29 -487 34 -508 3 -13 10 -114 15 -225 13 -259 37
-574 46 -588 3 -6 10 -7 14 -2 10 9 60 169 84 263 8 36 27 106 40 155 14 50
43 160 66 245 23 85 52 196 65 245 14 50 32 117 40 150 8 33 26 98 40 145 14
47 29 106 35 132 5 25 15 58 21 72 l12 26 309 0 c259 0 308 -2 308 -14 0 -24
-51 -226 -112 -439 -29 -102 -68 -254 -83 -322 -8 -33 -21 -80 -30 -105 -9
-25 -22 -72 -29 -105 -8 -33 -26 -103 -40 -155 -15 -52 -41 -147 -58 -210 -17
-63 -41 -153 -54 -200 -40 -150 -91 -342 -119 -450 -37 -141 -73 -262 -83
-278 -7 -10 -105 -12 -458 -10 l-449 3 -8 100 c-4 55 -14 159 -22 230 -15 135
-28 280 -45 500 -5 72 -15 168 -20 215 -6 47 -17 172 -24 277 -7 106 -16 196
-20 200 -18 19 -42 -19 -62 -98 -12 -46 -36 -138 -54 -204 -71 -266 -91 -344
-114 -430 -34 -128 -64 -238 -91 -330 -13 -44 -27 -96 -30 -115 -6 -32 -42
-165 -81 -297 l-15 -53 -310 0 c-249 0 -311 3 -315 13 -3 8 4 49 16 93 53 201
83 315 102 379 12 39 27 95 33 125 7 30 25 98 39 150 38 136 79 289 111 410
14 58 39 150 55 205 15 55 33 120 39 145 13 49 65 244 109 410 16 58 37 134
46 170 35 133 49 175 58 188 8 9 115 12 497 10 l486 -3 6 -115z m3175 97 c2
-7 -12 -76 -32 -153 -20 -76 -49 -187 -65 -246 -43 -165 -7 -148 -309 -148
-302 0 -286 5 -314 -106 -9 -38 -24 -94 -33 -124 -17 -58 -41 -149 -91 -340
-16 -63 -39 -146 -50 -185 -11 -38 -32 -117 -47 -175 -14 -58 -37 -143 -50
-190 -14 -47 -41 -146 -60 -220 -65 -248 -97 -365 -105 -380 -10 -21 -640 -28
-640 -7 0 14 36 153 90 352 15 55 35 129 44 165 9 36 30 112 45 170 16 58 41
150 56 205 46 175 87 328 108 400 11 39 25 95 32 125 7 30 24 95 39 144 33
112 34 152 4 160 -13 3 -130 6 -260 6 -133 0 -239 4 -243 9 -5 9 28 139 80
316 13 44 27 98 31 120 4 22 13 57 21 78 l15 37 864 0 c706 0 866 -2 870 -13z"/>
</g>
</svg>
