<?xml version="1.0" standalone="no"?>
<!DOCTYPE svg PUBLIC "-//W3C//DTD SVG 20010904//EN"
 "http://www.w3.org/TR/2001/REC-SVG-20010904/DTD/svg10.dtd">
<svg version="1.0" xmlns="http://www.w3.org/2000/svg"
 width="600.000000pt" height="600.000000pt" viewBox="0 0 600.000000 600.000000"
 preserveAspectRatio="xMidYMid meet">
<metadata>
Created by potrace 1.11, written by Peter Selinger 2001-2013
</metadata>
<g transform="translate(0.000000,600.000000) scale(0.100000,-0.100000)"
fill="#000000" stroke="none">
<path d="M0 3000 l0 -3000 3000 0 3000 0 0 3000 0 3000 -3000 0 -3000 0 0
-3000z m2083 1343 c3 -43 27 -422 53 -843 26 -421 51 -769 55 -774 5 -5 11 -8
13 -5 4 4 420 1545 451 1672 l7 27 380 0 c357 0 380 -1 376 -17 -3 -10 -166
-620 -363 -1355 l-359 -1338 -543 0 c-299 0 -543 3 -543 8 2 42 -156 1790
-162 1797 -6 6 -11 6 -16 -2 -5 -7 -116 -416 -248 -908 l-239 -895 -384 0
c-360 0 -383 1 -379 18 3 9 166 619 363 1355 l359 1337 586 0 587 0 6 -77z
m3737 71 c0 -6 -137 -521 -166 -621 l-15 -53 -324 0 -324 0 -10 -37 c-97 -367
-533 -1989 -537 -1995 -6 -10 -761 -11 -767 0 -2 4 118 462 267 1017 l272
1010 -322 5 -321 5 90 338 91 337 1033 0 c568 0 1033 -3 1033 -6z"/>
</g>
</svg>
